# File created by Blade
# Date/Time:  Tue Jan 27 18:02:00 2015
#---------------------------------------------------------
:version 1.10
:name HOM
:units
  mass 1.0
  length 1.000000
  angle deg
:documentation
     Acclaim Skeleton File
:root
   axis xyz
   order TX TY TZ RX RY RZ
   position 0.000000 0.000000 0.000000
   orientation 0 0 0
:bonedata
   begin
      id 1
      name Spine_dum
      direction 0.000000 1.000000 0.000000
      length 5.195262
      axis 0.0 0.0 0.0 xyz
   end
   begin
      id 2
      name LeftUpLeg_dum
      direction 1.000000 0.000000 0.000000
      length 3.351363
      axis 0.0 0.0 0.0 xyz
   end
   begin
      id 3
      name RightUpLeg_dum
      direction -1.000000 0.000000 0.000000
      length 3.351363
      axis 0.0 0.0 0.0 xyz
   end
   begin
      id 4
      name Spine
      direction 0.000000 1.000000 0.000000
      length 0.000000
      axis 0.0 0.0 0.0 xyz
      dof rx ry rz
   end
   begin
      id 5
      name Spine_dum1
      direction 0.000000 1.000000 0.000000
      length 15.653875
      axis 0.0 0.0 0.0 xyz
   end
   begin
      id 6
      name Spine_dum2
      direction 0.000000 1.000000 0.000000
      length 10.329768
      axis 0.0 0.0 0.0 xyz
   end
   begin
      id 7
      name Spine_dum3
      direction 0.000000 1.000000 0.000000
      length 10.329768
      axis 0.0 0.0 0.0 xyz
   end
   begin
      id 8
      name Head
      direction 0.000000 1.000000 0.000000
      length 4.527550
      axis 0.0 0.0 0.0 xyz
      dof rx ry rz
   end
   begin
      id 9
      name LeftShoulder
      direction 1.000000 0.000000 0.000000
      length 6.996006
      axis 0.0 0.0 -90.0 xyz
      dof rx ry rz
   end
   begin
      id 10
      name LeftArm
      direction 1.000000 0.000000 0.000000
      length 10.209302
      axis 0.0 0.0 -90.0 xyz
      dof rx ry rz
   end
   begin
      id 11
      name LeftForeArm
      direction 1.000000 0.000000 0.000000
      length 8.563163
      axis 0.0 0.0 -90.0 xyz
      dof ry rz rx
   end
   begin
      id 12
      name LeftHand
      direction 0.000000 0.000000 0.000000
      length 0.000000
      axis 0.0 0.0 -90.0 xyz
      dof rx ry rz
   end
   begin
      id 13
      name LeftHand_dum1
      direction 0.000000 0.000000 0.000000
      length 0.000000
      axis 0.0 0.0 -90.0 xyz
   end
   begin
      id 14
      name LeftHand_dum2
      direction 1.000000 0.000000 0.000000
      length 3.937000
      axis 0.0 0.0 -90.0 xyz
   end
   begin
      id 15
      name LeftHandThumb1
      direction 0.000000 0.000000 1.000000
      length 3.937000
      axis 0.0 0.0 -90.0 xyz
      dof rx rz ry
   end
   begin
      id 16
      name RightShoulder
      direction -1.000000 0.000000 0.000000
      length 6.996006
      axis 0.0 0.0 90.0 xyz
      dof rx ry rz
   end
   begin
      id 17
      name RightArm
      direction -1.000000 0.000000 0.000000
      length 10.209302
      axis 0.0 0.0 90.0 xyz
      dof rx ry rz
   end
   begin
      id 18
      name RightForeArm
      direction -1.000000 0.000000 0.000000
      length 8.563163
      axis 0.0 0.0 90.0 xyz
      dof ry rz rx
   end
   begin
      id 19
      name RightHand
      direction 0.000000 0.000000 0.000000
      length 0.000000
      axis 0.0 0.0 90.0 xyz
      dof rx ry rz
   end
   begin
      id 20
      name RightHand_dum1
      direction 0.000000 0.000000 0.000000
      length 0.000000
      axis 0.0 0.0 90.0 xyz
   end
   begin
      id 21
      name RightHand_dum2
      direction -1.000000 0.000000 0.000000
      length 3.937000
      axis 0.0 0.0 90.0 xyz
   end
   begin
      id 22
      name RightHandThumb1
      direction 0.000000 0.000000 1.000000
      length 3.937000
      axis 0.0 0.0 90.0 xyz
      dof rx rz ry
   end
   begin
      id 23
      name LeftUpLeg
      direction 0.000000 -1.000000 0.000000
      length 16.346831
      axis 0.0 0.0 0.0 xyz
      dof rx ry rz
   end
   begin
      id 24
      name LeftLeg
      direction 0.000000 -1.000000 0.000000
      length 13.959795
      axis 0.0 0.0 0.0 xyz
      dof rx ry rz
   end
   begin
      id 25
      name LeftFoot
      direction 0.000000 -0.258819 0.965926
      length 5.165550
      axis 15.0 0.0 0.0 xyz
      dof rx ry rz
   end
   begin
      id 26
      name LeftToeBase
      direction 0.000000 0.000000 1.000000
      length 2.952750
      axis 0.0 0.0 0.0 xyz
      dof rx ry rz
   end
   begin
      id 27
      name RightUpLeg
      direction 0.000000 -1.000000 0.000000
      length 16.346831
      axis 0.0 0.0 0.0 xyz
      dof rx ry rz
   end
   begin
      id 28
      name RightLeg
      direction 0.000000 -1.000000 0.000000
      length 13.959795
      axis 0.0 0.0 0.0 xyz
      dof rx ry rz
   end
   begin
      id 29
      name RightFoot
      direction 0.000000 -0.258819 0.965926
      length 5.165550
      axis 15.0 0.0 0.0 xyz
      dof rx ry rz
   end
   begin
      id 30
      name RightToeBase
      direction 0.000000 0.000000 1.000000
      length 2.952750
      axis 0.0 0.0 0.0 xyz
      dof rx ry rz
   end
:hierarchy
   begin
      root Spine_dum LeftUpLeg_dum RightUpLeg_dum
      Spine_dum Spine
      LeftUpLeg_dum LeftUpLeg
      RightUpLeg_dum RightUpLeg
      Spine Spine_dum1 Spine_dum2 Spine_dum3
      Spine_dum1 Head
      Spine_dum2 LeftShoulder
      Spine_dum3 RightShoulder
      LeftShoulder LeftArm
      LeftArm LeftForeArm
      LeftForeArm LeftHand
      LeftHand LeftHand_dum1 LeftHand_dum2
      LeftHand_dum1 LeftHandThumb1
      RightShoulder RightArm
      RightArm RightForeArm
      RightForeArm RightHand
      RightHand RightHand_dum1 RightHand_dum2
      RightHand_dum1 RightHandThumb1
      LeftUpLeg LeftLeg
      LeftLeg LeftFoot
      LeftFoot LeftToeBase
      RightUpLeg RightLeg
      RightLeg RightFoot
      RightFoot RightToeBase
   end

# File created by Blade
# Date/Time:  Tue Jan 27 18:01:49 2015
# Frame Rate: 120.000 fps
#------------------------------------------------------
:FULLY-SPECIFIED
:DEGREES
428
root -1.183087 31.988744 -5.944910 7.245241 21.753081 4.937515
Spine -8.418036 -1.524100 -1.972795
Head 5.872271 -17.231439 -9.191759
LeftShoulder -10.349512 14.274308 6.001720
LeftArm 22.274657 39.642825 -73.582660
LeftForeArm -1.676924 -0.000000 15.261962
LeftHand -11.161018 -0.000000 -6.447598
LeftHandThumb1 -26.253704 0.000000 33.147579
RightShoulder -14.493552 51.601438 -56.445967
RightArm 96.396664 38.574083 138.201633
RightForeArm 51.790926 -0.000000 151.505517
RightHand 10.096134 0.000000 5.864298
RightHandThumb1 -24.326973 -0.000000 -32.862282
LeftUpLeg -2.292805 -9.307514 -1.129700
LeftLeg 0.044514 -0.000000 -0.000000
LeftFoot -12.792966 11.442778 -23.372796
LeftToeBase 8.280303 -0.000000 -0.000000
RightUpLeg 4.490998 -12.582191 -4.022114
RightLeg -4.036660 -0.000000 0.000000
RightFoot -16.595868 -19.080756 12.023516
RightToeBase 4.988923 -0.000000 -0.000000
429
root -1.192095 31.989454 -5.947681 7.274073 21.839865 4.930818
Spine -8.409419 -1.552092 -1.973988
Head 5.666243 -17.151685 -8.963279
LeftShoulder -10.351973 14.229734 6.003478
LeftArm 22.286503 39.631299 -73.609411
LeftForeArm -1.683471 -0.000000 15.291662
LeftHand -11.189551 0.000000 -6.433986
LeftHandThumb1 -26.253704 0.000000 33.147579
RightShoulder -14.621416 51.531370 -56.607746
RightArm 96.567634 38.548820 138.182099
RightForeArm 51.649046 -0.000000 151.495903
RightHand 10.024469 -0.000000 5.669857
RightHandThumb1 -24.326973 -0.000000 -32.862282
LeftUpLeg -2.333098 -9.348731 -1.093957
LeftLeg 0.021602 -0.000000 -0.000000
LeftFoot -12.746954 11.416580 -23.374563
LeftToeBase 8.290402 -0.000000 -0.000000
RightUpLeg 4.478393 -12.633098 -3.987306
RightLeg -4.067363 -0.000000 0.000000
RightFoot -16.582538 -19.101629 12.034664
RightToeBase 5.054840 -0.000000 -0.000000
430
root -1.202140 31.990436 -5.951373 7.308404 21.924734 4.925142
Spine -8.404791 -1.579646 -1.978853
Head 5.464480 -17.078940 -8.729853
LeftShoulder -10.327096 14.133016 6.021760
LeftArm 22.204977 39.607500 -73.695719
LeftForeArm -1.711351 -0.000000 15.340376
LeftHand -11.003534 -0.000000 -5.926109
LeftHandThumb1 -26.253704 0.000000 33.147579
RightShoulder -14.751100 51.430101 -56.755346
RightArm 96.787837 38.507307 138.124127
RightForeArm 51.636734 -0.000000 151.477414
RightHand 9.923964 -0.000000 5.560588
RightHandThumb1 -24.326973 -0.000000 -32.862282
LeftUpLeg -2.383974 -9.376600 -1.052192
LeftLeg -0.003728 -0.000000 0.000000
LeftFoot -12.669712 11.375823 -23.312257
LeftToeBase 8.239285 -0.000000 -0.000000
RightUpLeg 4.448247 -12.698166 -3.949499
RightLeg -4.075673 -0.000000 0.000000
RightFoot -16.583166 -19.110167 12.062915
RightToeBase 5.019773 -0.000000 -0.000000
431
root -1.211059 31.991232 -5.956340 7.353624 22.014583 4.925810
Spine -8.411248 -1.615766 -1.991142
Head 5.297147 -16.967907 -8.492782
LeftShoulder -10.330484 14.145815 6.012145
LeftArm 22.302640 39.596462 -73.661988
LeftForeArm -1.707531 -0.000000 15.371553
LeftHand -10.980170 -0.000000 -5.881089
LeftHandThumb1 -26.253704 0.000000 33.147579
RightShoulder -14.861909 51.645731 -56.854816
RightArm 96.690629 38.624684 137.584565
RightForeArm 51.494034 -0.000000 151.405472
RightHand 9.829535 0.000000 5.563576
RightHandThumb1 -24.326973 -0.000000 -32.862282
LeftUpLeg -2.447646 -9.408369 -1.026063
LeftLeg -0.008928 -0.000000 0.000000
LeftFoot -12.638749 11.346856 -23.344807
LeftToeBase 8.227371 -0.000000 -0.000000
RightUpLeg 4.408347 -12.729739 -3.913871
RightLeg -4.085969 -0.000000 0.000000
RightFoot -16.582324 -19.174317 12.055985
RightToeBase 5.046794 -0.000000 -0.000000
432
root -1.219575 31.991458 -5.959997 7.383859 22.105090 4.926793
Spine -8.406919 -1.656614 -1.997622
Head 5.151758 -16.851011 -8.273193
LeftShoulder -10.326703 14.122714 6.012238
LeftArm 22.328534 39.587078 -73.686954
LeftForeArm -1.659467 -0.000000 15.407361
LeftHand -11.032647 -0.000000 -6.457656
LeftHandThumb1 -26.253704 0.000000 33.147579
RightShoulder -14.961290 51.585979 -56.997605
RightArm 96.861111 38.645039 137.279819
RightForeArm 51.616356 -0.000000 151.385350
RightHand 9.914029 -0.000000 5.256420
RightHandThumb1 -24.326973 -0.000000 -32.862282
LeftUpLeg -2.488929 -9.439350 -0.995174
LeftLeg -0.040376 -0.000000 0.000000
LeftFoot -12.574007 11.314424 -23.282226
LeftToeBase 8.244140 -0.000000 -0.000000
RightUpLeg 4.392825 -12.780052 -3.885829
RightLeg -4.108187 -0.000000 0.000000
RightFoot -16.574376 -19.207598 12.060419
RightToeBase 5.040347 -0.000000 -0.000000
433
root -1.228446 31.991992 -5.963199 7.414424 22.190864 4.925555
Spine -8.403244 -1.694701 -2.007482
Head 5.024225 -16.745112 -8.046538
LeftShoulder -10.326829 14.069001 6.018308
LeftArm 22.331757 39.616835 -73.714392
LeftForeArm -1.685015 0.000000 15.438396
LeftHand -11.076175 -0.000000 -6.491038
LeftHandThumb1 -26.253704 0.000000 33.147579
RightShoulder -15.077088 51.523348 -57.164576
RightArm 97.211122 38.696931 137.252660
RightForeArm 51.767071 0.000000 151.335565
RightHand 9.649334 0.000000 5.443623
RightHandThumb1 -24.326973 -0.000000 -32.862282
LeftUpLeg -2.528277 -9.446891 -0.965873
LeftLeg -0.067591 -0.000000 0.000000
LeftFoot -12.514284 11.259104 -23.285983
LeftToeBase 8.246256 -0.000000 -0.000000
RightUpLeg 4.370719 -12.830697 -3.852171
RightLeg -4.122453 -0.000000 0.000000
RightFoot -16.574365 -19.234636 12.079726
RightToeBase 5.051003 -0.000000 -0.000000
434
root -1.236611 31.992885 -5.966074 7.447281 22.275282 4.927186
Spine -8.413266 -1.750246 -2.008623
Head 4.891165 -16.764681 -7.802013
LeftShoulder -10.368690 14.097592 5.984580
LeftArm 22.456507 39.654247 -73.648108
LeftForeArm -1.719327 -0.000000 15.461050
LeftHand -11.121674 -0.000000 -6.387793
LeftHandThumb1 -26.253704 0.000000 33.147579
RightShoulder -15.186367 51.322143 -57.319301
RightArm 97.454666 38.643503 137.080726
RightForeArm 51.731107 0.000000 151.323830
RightHand 9.690855 -0.000000 5.270930
RightHandThumb1 -24.326973 -0.000000 -32.862282
LeftUpLeg -2.568746 -9.460993 -0.941513
LeftLeg -0.091026 -0.000000 0.000000
LeftFoot -12.461752 11.218264 -23.277484
LeftToeBase 8.265490 -0.000000 -0.000000
RightUpLeg 4.351277 -12.884523 -3.823023
RightLeg -4.141329 -0.000000 0.000000
RightFoot -16.566807 -19.270235 12.079329
RightToeBase 5.077234 -0.000000 -0.000000
435
root -1.245171 31.993788 -5.969769 7.472716 22.370220 4.929086
Spine -8.399354 -1.818562 -2.017997
Head 4.755986 -16.658166 -7.563856
LeftShoulder -10.401166 14.071106 5.969615
LeftArm 22.514287 39.693584 -73.622753
LeftForeArm -1.794033 -0.000000 15.492117
LeftHand -10.852334 -0.000000 -5.930898
LeftHandThumb1 -26.253704 0.000000 33.147579
RightShoulder -15.418062 51.246318 -57.567001
RightArm 97.727740 38.645337 137.099268
RightForeArm 51.626284 -0.000000 151.277076
RightHand 9.543833 -0.000000 5.357664
RightHandThumb1 -24.326973 -0.000000 -32.862282
LeftUpLeg -2.606124 -9.503731 -0.913343
LeftLeg -0.111703 -0.000000 0.000000
LeftFoot -12.404167 11.182371 -23.265915
LeftToeBase 8.251501 -0.000000 -0.000000
RightUpLeg 4.334910 -12.945873 -3.791422
RightLeg -4.152192 -0.000000 0.000000
RightFoot -16.555052 -19.330054 12.055474
RightToeBase 5.043997 -0.000000 -0.000000
436
root -1.253279 31.995090 -5.972642 7.491926 22.469287 4.935022
Spine -8.371640 -1.909437 -2.033294
Head 4.608734 -16.452198 -7.304590
LeftShoulder -10.458329 14.022513 5.949524
LeftArm 22.533798 39.737008 -73.622126
LeftForeArm -1.714113 0.000000 15.538032
LeftHand -10.954401 -0.000000 -6.597785
LeftHandThumb1 -26.253704 0.000000 33.147579
RightShoulder -15.692667 51.218548 -57.835851
RightArm 97.802004 38.650608 136.949871
RightForeArm 51.522431 -0.000000 151.257419
RightHand 9.605973 -0.000000 5.303585
RightHandThumb1 -24.326973 -0.000000 -32.862282
LeftUpLeg -2.628080 -9.525983 -0.893189
LeftLeg -0.145146 -0.000000 0.000000
LeftFoot -12.338668 11.140837 -23.257810
LeftToeBase 8.280451 -0.000000 -0.000000
RightUpLeg 4.332925 -13.011914 -3.767250
RightLeg -4.171661 -0.000000 0.000000
RightFoot -16.551750 -19.364661 12.075616
RightToeBase 5.074753 -0.000000 -0.000000
437
root -1.261600 31.995942 -5.975497 7.509967 22.564770 4.941313
Spine -8.356677 -2.008015 -2.050152
Head 4.491832 -16.335875 -7.033551
LeftShoulder -10.483901 13.969828 5.946227
LeftArm 22.506704 39.767992 -73.664015
LeftForeArm -1.690868 -0.000000 15.586252
LeftHand -11.028756 0.000000 -6.618631
LeftHandThumb1 -26.253704 0.000000 33.147579
RightShoulder -15.925810 51.028633 -58.075956
RightArm 98.097032 38.568171 137.103047
RightForeArm 51.469675 0.000000 151.256911
RightHand 9.516858 -0.000000 5.202047
RightHandThumb1 -24.326973 -0.000000 -32.862282
LeftUpLeg -2.654242 -9.556084 -0.871315
LeftLeg -0.168252 -0.000000 0.000000
LeftFoot -12.271843 11.103624 -23.244628
LeftToeBase 8.264533 -0.000000 -0.000000
RightUpLeg 4.326479 -13.081940 -3.742446
RightLeg -4.178963 -0.000000 0.000000
RightFoot -16.542552 -19.408076 12.037719
RightToeBase 5.047661 -0.000000 -0.000000
438
root -1.268194 31.996311 -5.976604 7.534254 22.643882 4.953895
Spine -8.371041 -2.074432 -2.071514
Head 4.421791 -16.307463 -6.791589
LeftShoulder -10.473694 13.964731 5.942786
LeftArm 22.506680 39.796931 -73.679922
LeftForeArm -1.721336 -0.000000 15.646419
LeftHand -11.031138 -0.000000 -6.469211
LeftHandThumb1 -26.253704 0.000000 33.147579
RightShoulder -16.090151 50.780738 -58.207490
RightArm 98.305952 38.416915 137.057165
RightForeArm 51.291930 -0.000000 151.241466
RightHand 9.480505 0.000000 5.082961
RightHandThumb1 -24.326973 -0.000000 -32.862282
LeftUpLeg -2.672113 -9.577111 -0.859773
LeftLeg -0.201054 -0.000000 0.000000
LeftFoot -12.215255 11.056541 -23.236939
LeftToeBase 8.194049 -0.000000 -0.000000
RightUpLeg 4.314950 -13.132640 -3.723132
RightLeg -4.184121 -0.000000 0.000000
RightFoot -16.564257 -19.453064 12.056491
RightToeBase 5.051969 -0.000000 -0.000000
